<?xml version="1.0" encoding="UTF-8"?>
<svg width="17px" height="18px" viewBox="0 0 17 18" version="1.1" xmlns="http://www.w3.org/2000/svg" xmlns:xlink="http://www.w3.org/1999/xlink">
    <title>0FB5FED2-2523-46EA-93EB-27E924CE7DC4</title>
    <g id="HOME" stroke="none" stroke-width="1" fill="none" fill-rule="evenodd">
        <g id="1199-992" transform="translate(-540.000000, -433.000000)" fill="#16254F" fill-rule="nonzero">
            <g id="LeadLine" transform="translate(0.000000, 406.000000)">
                <g id="call" transform="translate(436.000000, 16.000000)">
                    <g id="Group-11" transform="translate(37.000000, 9.000000)">
                        <path d="M83.600436,14.978065 L80.6384275,13.3979438 C79.6510913,12.8656924 79.6176223,13.2149824 78.5800826,14.3127508 C78.3290649,14.5788765 77.8604986,15.2774564 77.3082597,15.1443936 C76.1535784,14.861635 73.9948264,13.1817167 73.2919769,12.4166053 C72.9572867,12.0506825 71.5181187,10.3042327 71.5013842,9.73871562 C71.4679152,8.87380715 73.3756495,8.44135291 72.7564726,6.79470024 L71.4344461,3.85068487 C70.1960923,1.02309948 66.7320484,5.5472361 67.0165351,7.65960872 C67.7528536,12.8656924 76.9401004,21.2819171 82.060861,18.5042303 C83.1988078,17.8721818 84.7383828,15.6600121 83.600436,14.978065 Z" id="Shape"></path>
                    </g>
                </g>
            </g>
        </g>
    </g>
</svg>