<?xml version="1.0" encoding="UTF-8"?>
<svg width="76px" height="52px" viewBox="0 0 76 52" version="1.1" xmlns="http://www.w3.org/2000/svg" xmlns:xlink="http://www.w3.org/1999/xlink">
    <title>2FE190A7-3414-4BA3-B258-AE899DBB701E</title>
    <defs>
        <linearGradient x1="14.625257%" y1="27.8926442%" x2="106.298227%" y2="60.2473374%" id="linearGradient-1">
            <stop stop-color="#00B3B1" offset="0%"></stop>
            <stop stop-color="#24E7C8" offset="100%"></stop>
        </linearGradient>
        <linearGradient x1="39.4752831%" y1="-6.59483086%" x2="66.7498856%" y2="76.2331836%" id="linearGradient-2">
            <stop stop-color="#00B3B1" offset="0%"></stop>
            <stop stop-color="#24E7C8" offset="100%"></stop>
        </linearGradient>
        <linearGradient x1="14.625257%" y1="-6.59483086%" x2="106.298227%" y2="76.2331836%" id="linearGradient-3">
            <stop stop-color="#00B3B1" offset="0%"></stop>
            <stop stop-color="#24E7C8" offset="100%"></stop>
        </linearGradient>
        <linearGradient x1="14.625257%" y1="-6.59483086%" x2="106.298227%" y2="76.2331836%" id="linearGradient-4">
            <stop stop-color="#00B3B1" offset="0%"></stop>
            <stop stop-color="#24E7C8" offset="100%"></stop>
        </linearGradient>
        <linearGradient x1="14.625257%" y1="30.9191205%" x2="106.298227%" y2="58.8444865%" id="linearGradient-5">
            <stop stop-color="#00B3B1" offset="0%"></stop>
            <stop stop-color="#24E7C8" offset="100%"></stop>
        </linearGradient>
        <linearGradient x1="14.625257%" y1="30.0481114%" x2="106.298227%" y2="59.248222%" id="linearGradient-6">
            <stop stop-color="#00B3B1" offset="0%"></stop>
            <stop stop-color="#24E7C8" offset="100%"></stop>
        </linearGradient>
    </defs>
    <g id="HOME" stroke="none" stroke-width="1" fill="none" fill-rule="evenodd">
        <g id="Desktop-HD---1920-1200" transform="translate(-1162.000000, -909.000000)">
            <g id="Model3" transform="translate(480.000000, 650.000000)">
                <g id="Group-4" transform="translate(377.000000, 58.000000)">
                    <g id="001-copy-2" transform="translate(242.000000, 201.000000)">
                        <g id="ICONS-/-GRAPH" transform="translate(63.000000, 0.000000)">
                            <g id="np_money_2294051_000000" transform="translate(0.500000, 0.000000)">
                                <path d="M74.3778272,37.1031021 C74.7622102,36.8865703 75,36.4797449 75,36.0368631 L75,4.17651576 C75,3.75328733 74.7817488,3.36287335 74.4266861,3.13975685 C71.0356698,1.02693221 67.0648351,0 62.2857738,0 C56.7448512,0 50.8945476,1.338615 44.7019234,2.75256804 C38.3596122,4.2027203 31.7988163,5.70200606 25.4602577,5.70200606 L25.4570005,5.70200606 C20.6555069,5.70200606 16.48912,4.84246371 12.7231773,3.07080197 C12.3485677,2.89363579 11.908813,2.92316629 11.5602882,3.14626095 C11.2117634,3.36935561 11,3.75649066 11,4.17319316 L11,36.0335405 C11,36.505978 11.2736229,36.9390247 11.7003519,37.1391703 C15.7950224,39.0650356 20.2971419,40 25.4632214,40 C32.0758866,40 38.7699415,38.4678746 45.2427598,36.9882422 C51.2983724,35.6037693 57.0184191,34.2947184 62.2887375,34.2947184 C66.6048948,34.2947184 70.1587739,35.2034782 73.1554336,37.0702994 C73.5235303,37.3065181 73.992597,37.3163616 74.3769466,37.103108 L74.3778272,37.1031021 Z M72.579748,33.9830826 C69.6121918,32.5559433 66.2244278,31.8571557 62.2859489,31.8571557 C56.7450263,31.8571557 50.8947227,33.1957707 44.7020985,34.6097238 C38.3597873,36.059876 31.7989914,37.5591618 25.4570972,37.5591618 C20.9488068,37.5591618 17.0004043,36.8012964 13.4170881,35.242916 L13.4203454,6.02065992 C17.0491931,7.44452366 21.0070188,8.14003569 25.4570188,8.14003569 L25.4602761,8.14003569 C32.0729412,8.14003569 38.7636605,6.60791028 45.2398144,5.12827792 C51.2986792,3.74380498 57.0154737,2.43475407 62.2857921,2.43475407 C66.3315954,2.43475407 69.706267,3.23199345 72.579748,4.86908819 L72.579748,33.9830826 Z" id="Shape" fill="url(#linearGradient-1)"></path>
                                <path d="M43.3259888,13.8980211 C45.5461536,13.8980211 47.8330825,15.0394947 47.8565355,15.0493474 L49,12.8783158 C48.8996911,12.8289743 46.8400942,11.7927579 44.4427476,11.5197474 L44.4427476,9 L42.2995328,9 L42.2995328,11.5197474 C39.1866971,11.9013221 37.7723243,14 37.7723243,16.0921263 C37.7723243,18.4341895 39.4073612,20.1118316 42.6372053,21.0789895 C45.7400264,22.0066526 45.7400264,23.2138947 45.7400264,23.7269895 C45.7400264,25.1216842 44.6199294,25.9210947 42.670673,25.9210947 C40.4505082,25.9210947 38.1635793,24.7796211 38.1401263,24.7664842 L37,26.9375158 C37.1103406,26.9934366 39.6046578,28.2434526 42.302871,28.352 L42.302871,31 L44.4460858,31 L44.4460858,28.1677474 C47.0406434,27.5657768 48.2243375,25.6381474 48.2243375,23.7237053 C48.2243375,21.3816421 46.5893006,19.704 43.3627947,18.7368421 C40.2599736,17.8058947 40.2599736,16.6019368 40.2599736,16.0888421 C40.2566294,14.6974316 41.3733942,13.8980211 43.3259888,13.8980211 L43.3259888,13.8980211 Z" id="Path" fill="url(#linearGradient-2)"></path>
                                <path d="M23,18 C20.2431174,18 18,20.2431188 18,23 C18,25.7568812 20.2431174,28 23,28 C25.7568761,28 28,25.7568812 28,23 C28.0031261,20.2431188 25.7600039,18 23,18 Z M22.9999967,26.0641281 C21.311383,26.0641281 19.9392391,24.6919832 19.9392391,23.0033684 C19.9392391,21.3147536 21.311383,19.9426088 22.9999967,19.9426088 C24.6886104,19.9426088 26.0607597,21.3147536 26.0607597,23.0033684 C26.063887,24.6888554 24.6886104,26.0641281 22.9999967,26.0641281 Z" id="Shape" fill="url(#linearGradient-3)"></path>
                                <path d="M58,16.9983881 C58,19.7558544 60.2447866,22 63,22 C65.7583555,22 68,19.7559371 68,16.9983881 C68,14.2408392 65.7552134,12 63,12 C60.2416445,12 58,14.2408392 58,16.9983881 Z M63,13.998727 C64.6537399,13.998727 66.0006284,15.3451813 66.0006284,16.9983881 C66.0006284,18.6515949 64.6537399,19.9980492 63,19.9980492 C61.3462601,19.9980492 59.9993716,18.6515949 59.9993716,16.9983881 C59.9993716,15.3451813 61.3462601,13.998727 63,13.998727 Z" id="Shape" fill="url(#linearGradient-4)"></path>
                                <path d="M7.2167952,10 C6.54623897,10 6,10.5388188 6,11.2042074 L6,40.8357519 C6,41.3323753 6.30747714,41.7802886 6.77522859,41.9588589 C14.5405776,44.9515951 21.563339,46 27.8729886,46 C36.5381849,46 43.8518518,44.0232619 49.8767925,42.3971 C56.6576352,40.5632015 62.0154363,39.1187676 66.2936048,40.9851561 C66.9085591,41.2545655 67.6248697,40.9754182 67.8964317,40.368436 C68.1679266,39.758214 67.8866184,39.0473976 67.2749375,38.7779218 C62.2113913,36.5674384 56.1989275,38.1904178 49.241984,40.0697939 C38.7487897,42.9067277 25.7267113,46.4219628 8.43651285,40.0048754 L8.43324205,11.2076009 C8.43324205,10.5389468 7.88698634,10 7.21644685,10 L7.2167952,10 Z" id="Path" fill="url(#linearGradient-5)"></path>
                                <path d="M0.696580814,46.001158 C10.3054834,50.5068479 18.8853671,52 26.4820956,52 C35.1695509,52 42.5703155,50.0480507 48.7527684,48.4182339 C54.6616222,46.8599558 59.3298161,45.6302227 62.251763,47.0779032 C62.8478602,47.3739435 63.5774797,47.129954 63.8739273,46.5346253 C64.1703498,45.9360403 63.9260453,45.2106178 63.3299481,44.9145524 C59.5937086,43.0602089 54.5382567,44.3940437 48.1339894,46.0791594 C37.0357611,49.007 21.8831646,53.0019251 2.42019596,44.1337894 L2.42019596,15.2101619 C2.42019596,14.5432612 1.879469,14 1.2084719,14 C0.540710287,14.003253 0,14.5400299 0,15.2101619 L0,44.9049751 C0,45.3734329 0.270363482,45.7995838 0.697081147,46.0012913 L0.696580814,46.001158 Z" id="Path" fill="url(#linearGradient-6)"></path>
                            </g>
                        </g>
                    </g>
                </g>
            </g>
        </g>
    </g>
</svg>