<?xml version="1.0" encoding="UTF-8"?>
<svg width="59px" height="50px" viewBox="0 0 59 50" version="1.1" xmlns="http://www.w3.org/2000/svg" xmlns:xlink="http://www.w3.org/1999/xlink">
    <title>CE52B4CC-8BB2-4D47-9579-BB54F35B7D08</title>
    <defs>
        <linearGradient x1="14.625257%" y1="7.9408213%" x2="106.298227%" y2="69.4955289%" id="linearGradient-1">
            <stop stop-color="#00B3B1" offset="0%"></stop>
            <stop stop-color="#24E7C8" offset="100%"></stop>
        </linearGradient>
    </defs>
    <g id="HOME" stroke="none" stroke-width="1" fill="none" fill-rule="evenodd">
        <g id="Desktop-HD---1920-1200" transform="translate(-931.000000, -910.000000)" fill="url(#linearGradient-1)">
            <g id="Model3" transform="translate(480.000000, 650.000000)">
                <g id="Group-4" transform="translate(377.000000, 58.000000)">
                    <g id="001-copy" transform="translate(0.000000, 202.000000)">
                        <g id="ICONS-/-GRAPH" transform="translate(74.000000, 0.000000)">
                            <g id="np_wallet_1563164_000000" transform="translate(0.400000, 0.000000)">
                                <path d="M5.52380952,0 C2.48681905,0 0,2.50111111 0,5.55555556 L0,45.1388889 C0,47.8081944 2.17928095,50 4.83333333,50 L53.1666667,50 C55.820719,50 58,47.8081944 58,45.1388889 L58,13.1944444 C58,10.5251389 55.820719,8.33333333 53.1666667,8.33333333 L49.7142857,8.33333333 L49.7142857,1.38888889 C49.7142857,0.661875 49.056179,0 48.3333333,0 L5.52380952,0 Z M5.75,3 L47,3 L47,9 L5.75,9 C4.203125,9 3,7.6875 3,6 C3,4.3125 4.203125,3 5.75,3 Z M3,10 C3.80716316,10.4791049 4.74261579,10.7622472 5.73684211,10.7622472 C21.1473158,10.7486364 39.7017368,10.7622472 52.9473684,10.7622472 C54.1073105,10.7622472 55,11.6714663 55,12.8528868 L55,19.8216854 L36.5263158,19.8216854 C34.6554105,19.8216854 33.1052632,21.4005364 33.1052632,23.3060847 L33.1052632,34.4561625 C33.1052632,36.3617108 34.6554105,37.9405618 36.5263158,37.9405618 L55,37.9405618 L55,44.9093604 C55,46.0907808 54.1073105,47 52.9473684,47 L5.05263158,47 C3.89268947,47 3,46.0907808 3,44.9093604 L3,10 Z M36.6785714,23 L55,23 L55,35 L36.6785714,35 C36.2783229,35 36,34.72656 36,34.3333333 L36,23.6666667 C36,23.27344 36.2783229,23 36.6785714,23 Z M42.5,26 C40.58319,26 39,27.58319 39,29.5 C39,31.41681 40.58319,33 42.5,33 C44.41681,33 46,31.41681 46,29.5 C46,27.58319 44.41681,26 42.5,26 Z M42.5,29 C42.78711,29 43,29.21289 43,29.5 C43,29.78711 42.78711,30 42.5,30 C42.21289,30 42,29.78711 42,29.5 C42,29.21289 42.21289,29 42.5,29 Z" id="Shape"></path>
                            </g>
                        </g>
                    </g>
                </g>
            </g>
        </g>
    </g>
</svg>